<?xml version="1.0" encoding="utf-8"?>
<!-- Generator: Adobe Illustrator 17.0.2, SVG Export Plug-In . SVG Version: 6.00 Build 0)  -->
<!DOCTYPE svg PUBLIC "-//W3C//DTD SVG 1.1//EN" "http://www.w3.org/Graphics/SVG/1.1/DTD/svg11.dtd">
<svg version="1.1" id="Layer_1" xmlns="http://www.w3.org/2000/svg" xmlns:xlink="http://www.w3.org/1999/xlink" x="0px" y="0px"
	 width="464px" height="172px" viewBox="0 0 464 172" enable-background="new 0 0 464 172" xml:space="preserve">
<path d="M70.531,81.516c1.546,1.237,1.392,4.485-0.31,5.258c-14.535,6.649-14.38,16.699-20.101,24.74
	c3.865,1.701,10.824,0.773,14.226,6.185c1.392,2.165,4.484,7.113,4.02,9.278c-0.464,1.701,0,4.638,0.155,6.34
	c0.309,4.948-1.856,15.926-2.319,17.782c-0.773,2.783-6.34,6.34-9.433,3.865c-3.711-5.257,0-21.647,0.155-28.297
	c0-0.464-0.928-2.474-2.32-3.092c-2.165-0.773-7.731,0.464-8.813,0.619c-0.619,0.155-2.474-0.155-4.02-0.464
	c-6.649-1.237-4.638-10.669,1.237-12.679c3.865-5.412,5.567-11.906,7.113-19.174c-11.597,0-21.029,4.484-30.461,4.484
	c-5.567,0-10.824-7.422-9.433-9.432c5.412-2.319,14.69-3.711,20.875-4.639C47.491,79.816,65.119,79.197,70.531,81.516z
	 M69.912,67.755c0,1.855-3.402,5.257-7.886,5.103c-5.412-0.309-15.308-8.35-18.4-8.35c-1.546,0-16.236,15.154-19.174,15.617
	c-1.237,0.31-6.804,0.464-7.268,0.31c-1.237-0.619-1.237-3.866,0.31-4.794c8.968-5.567,25.359-22.266,21.957-25.049
	c-1.392-1.237-10.824,0-12.525,0c-6.03,0-10.669-0.928-12.37-4.485c1.855-4.638,12.524-4.948,13.761-6.649
	c2.629-3.866-2.01-9.896-4.484-12.061c-2.783-2.474-8.659-8.195-4.02-11.133c6.34-3.866,23.967,11.597,23.967,21.957
	c0,1.392-4.02,4.329-7.113,6.031c13.452,0.618,16.545,6.494,11.597,14.226C50.584,59.559,64.5,66.672,69.912,67.755z"/>
<path d="M121.094,119.4c-4.638,6.34-17.782,11.442-30.152,11.442c-7.268-5.567-1.083-15.153,1.392-20.874
	c1.701-4.175,4.02-10.979,4.638-14.535c-1.392-4.175-10.36-0.619-15.308-3.092c-3.711-1.856-3.402-9.587,0.618-12.989
	c1.701-0.464,5.722-1.392,7.422-5.876c4.948-12.988,2.01-24.586-7.731-36.028c-1.237-3.866-2.165-10.051,3.866-12.679
	c7.886-3.556,17.627,22.421,17.627,32.471c-0.155,13.298-7.731,17.936-13.143,20.874c0.309,1.237,2.01,1.547,2.783,1.701
	c7.731,2.938,14.38,13.452,10.669,20.874c-0.31,0.464,0.309,1.856-0.155,2.629c-2.165,2.938-6.031,10.36-6.34,14.844
	c23.194-2.319,15.617-13.298,12.215-16.39c-4.794-2.165-1.856-4.484-1.392-7.577C116.61,96.051,126.66,111.668,121.094,119.4z
	 M166.554,78.888c0.464,3.247-0.773,8.659-3.711,10.36c-4.948,2.938-12.679,4.175-18.4,5.876c0.464,3.711,5.412,18.555,2.01,22.266
	c-8.195,1.856-9.277-15.463-10.978-25.049c-2.01-12.216-2.32-25.513-0.773-38.966c0.154-1.392,2.938-4.02,4.793-4.484
	c3.093,9.432,1.856,26.441,2.938,31.08C148.308,81.362,159.132,78.888,166.554,78.888z"/>
<path d="M213.561,95.897c-4.638,6.34-17.782,11.442-30.152,11.442c-7.268-5.567-1.083-15.154,1.392-20.875
	c1.701-4.175,4.02-10.978,4.638-14.535c-1.392-4.175-10.36-0.619-15.308-3.093c-3.711-1.855-3.402-9.586,0.619-12.988
	c1.701-0.464,5.721-1.392,7.422-5.876c4.948-12.989,2.01-21.184-7.731-29.843c-1.237-2.938-2.165-7.886,3.866-9.896
	c7.886-2.628,18.245,17.627,18.245,25.359c-0.155,10.051-8.349,16.081-13.761,19.019c0.309,1.237,2.01,1.546,2.783,1.701
	c7.731,2.938,14.38,13.452,10.669,20.874c-0.31,0.464,0.309,1.856-0.155,2.629c-2.165,2.938-6.031,10.36-6.34,14.844
	c23.194-2.319,15.617-13.298,12.215-16.39c-4.794-2.165-1.856-4.485-1.392-7.577C209.077,72.548,219.128,88.165,213.561,95.897z
	 M245.414,63.889c10.824,10.824-21.647,29.688-18.555,43.141c-2.628,15.927,0.464,35.719,4.639,47.161
	c0.309,0.773,1.701,1.856,1.855,2.474c0.155,0.618-1.855,3.556-4.329,3.556c-3.402,0-6.803-4.485-9.896-7.113
	c-0.464-0.464-2.165-4.02-2.319-4.794c-2.474-8.814-5.103-26.905-2.165-42.986c2.165-12.525,32.78-28.142,24.586-36.337
	c-1.392-1.392-9.587,0.928-11.752-0.928c-2.165-1.701-1.392-5.876-1.082-8.04c2.01-14.69-2.629-19.019-4.794-30.152
	c0-0.464,1.546-4.02,2.938-5.257c14.69,5.103,9.123,26.75,5.876,35.409C234.436,60.023,242.786,61.261,245.414,63.889z
	 M258.093,136.718c0,12.834-3.401,26.132-13.143,24.895c-4.948-2.165-11.442-6.185-11.288-12.525c0-4.175,6.34-20.72,15.308-19.174
	c-1.237-6.34-7.113-18.091-8.195-20.875c-1.237-3.556,0.464-7.886,2.319-6.649C253.455,109.194,258.093,125.894,258.093,136.718z
	 M250.362,135.326c-5.412,0.619-8.349,6.804-8.813,11.133c0.309,1.856,2.01,3.556,3.247,4.02
	C248.97,149.088,251.29,143.521,250.362,135.326z"/>
<path d="M297.833,86.001c1.237,4.175-0.154,6.185-0.773,8.813c-0.155,0.928-6.34,6.185-8.195,7.422
	c-4.485,3.092-12.37,7.267-17.318,1.237c-0.464,0-1.546,0.155-2.01-0.464c-5.257-7.886-13.298-29.379-3.865-35.873
	c0.773-0.619,2.165-0.155,3.402,0.928c1.391,3.711,1.082,3.556,2.938,12.989c0.773,4.02,0.619,6.803,2.783,10.824
	C278.195,91.567,295.359,85.537,297.833,86.001z M323.037,80.434c0.309,7.113,1.546,17.782-0.773,27.523
	c-0.155,0.928-1.701,0.619-2.629,0.619c-2.319,0-4.794-2.938-5.721-4.794c-0.31-9.742-1.237-23.039-1.237-32.008
	c0.155-12.834-7.113-18.091-0.309-18.709c3.865-0.309,8.504,12.834,8.813,17.009C321.181,71.311,322.882,77.651,323.037,80.434z"/>
<path d="M376.384,97.443c-0.464,3.711-10.36,5.876-13.917,7.577c-4.02,1.855-7.267,6.185-11.597,5.566
	c-13.143-2.165-12.834-17.163-10.978-24.895c0.309-1.392,2.01-5.567,2.938-8.35c-6.34-1.392-7.577-9.896-2.165-14.071
	c8.04,1.392,20.565-3.865,23.813-2.938c0.619,0.31,4.948,3.556,5.721,5.567c1.546,3.402-11.288,8.35-13.298,10.051
	c-3.247,3.093-6.649,12.525-7.113,18.865C359.529,93.268,373.6,86.155,376.384,97.443z M422.307,75.795
	c0.464,3.247-0.774,8.659-3.711,10.36c-4.948,2.938-12.679,4.175-18.4,5.876c0.464,3.711,5.412,18.555,2.01,22.266
	c-8.195,1.855-9.277-15.463-10.978-25.05c-2.01-12.215-2.32-25.513-0.774-38.966c0.155-1.392,2.938-4.02,4.794-4.484
	c3.093,9.432,1.856,26.441,2.938,31.08C404.062,78.269,414.885,75.795,422.307,75.795z"/>
<path d="M450.296,122.647c-0.773,0.774-4.793,3.711-9.122,2.783c-3.247-0.773-8.814-5.721-8.814-8.968
	c0-2.01,1.237-10.669,8.659-10.669C449.987,107.184,450.296,115.534,450.296,122.647z M454.626,48.736
	c-0.619,6.34-4.33,48.707-14.69,46.851c-4.02-6.958-0.619-46.851,1.546-54.119C448.441,40.077,455.399,42.242,454.626,48.736z"/>
</svg>
