<?xml version="1.0" encoding="utf-8"?>
<!-- Generator: Adobe Illustrator 17.0.2, SVG Export Plug-In . SVG Version: 6.00 Build 0)  -->
<!DOCTYPE svg PUBLIC "-//W3C//DTD SVG 1.1//EN" "http://www.w3.org/Graphics/SVG/1.1/DTD/svg11.dtd">
<svg version="1.1" id="Layer_1" xmlns="http://www.w3.org/2000/svg" xmlns:xlink="http://www.w3.org/1999/xlink" x="0px" y="0px"
	 width="260px" height="260px" viewBox="0 0 260 260" enable-background="new 0 0 260 260" xml:space="preserve">
<path fill="#2B2A28" d="M77.018,78.884c0.588,7.35-9.262,14.261-14.408,15.731c-2.205,0.588-15.877,4.998-24.698,8.232
	c-5.586,2.058-7.498,2.499-10.879,1.176c-3.381-1.47-3.822-8.527-2.206-11.761c6.322-13.231,12.938-18.524,16.907-23.669
	c-2.794-2.499-8.674-0.441-12.497,1.47c-7.939-4.999-4.411-11.467-3.234-12.938c1.029-1.176,6.909-5.439,9.115-9.262
	c0-6.468-15.143-6.322-20.435-9.115c-2.352-1.176-0.147-6.909,1.911-7.644c4.704-1.765,14.113-0.882,18.671,3.381
	c7.792,7.204,9.115,14.849,3.234,22.199c6.91,0.882,13.379,4.852,13.967,6.469c2.058,5.586-6.763,15.877-12.497,21.905
	c9.262-0.882,17.495-4.852,22.787-7.645c1.029-0.882,8.38-6.175,11.614-7.057C74.812,71.093,76.871,76.826,77.018,78.884z
	 M112.301,57.273c0.441,3.087-0.735,8.233-3.529,9.85c-4.704,2.793-12.055,3.97-17.495,5.586c0.441,3.529,5.145,17.642,1.911,21.17
	c-7.791,1.764-8.821-14.702-10.438-23.816c-1.911-11.614-2.205-24.258-0.735-37.047c0.147-1.324,2.793-3.822,4.557-4.263
	c2.94,8.968,1.765,25.139,2.793,29.55C94.953,59.625,105.245,57.273,112.301,57.273z"/>
<path fill="#2B2A28" d="M145.447,106.024c2.793,2.205,5.734,1.176,9.115,1.764c6.909-0.441,12.937-2.646,15.289-4.704
	c8.233,0,10.585,6.175,10.438,8.086c-0.735,11.908-24.992,11.614-35.136,9.409c-3.381-0.735-10.438-8.38-10.438-14.995
	c0-3.97,2.499-8.086,6.027-10.291c1.911-0.441,4.999-2.206,6.616-3.381c3.675-5.145,2.058-8.086,3.529-14.995
	c-9.262,0-18.083,4.851-27.051,4.851c-5.293,0-10.291-7.057-8.968-8.968c5.145-2.205,14.408-4.41,20.288-5.292
	c15.584-2.352,31.902-3.529,37.047-1.324c1.47,1.176,1.324,4.263-0.294,4.999c-4.704,2.205-11.467,2.646-14.554,4.852
	c0.882,8.967,0.882,17.494-2.646,22.64c-3.235,2.647-6.91-1.911-10.291-1.029C143.683,100.144,144.124,104.26,145.447,106.024z
	 M166.911,39.721c0.735,8.527-20.288,21.905-29.403,20.141c-1.911-0.441-11.614-2.058-10.585-10.879
	c1.176-10.732,9.997-23.816,20.287-24.698C153.973,24.872,165.882,25.754,166.911,39.721z M157.649,40.897
	c1.47-3.087-3.822-10.438-12.79-5.145c-13.672,8.233-9.115,15.877-2.205,14.407C150.739,49.865,155.296,45.601,157.649,40.897z"/>
<path fill="#2B2A28" d="M247.529,84.164c-0.294,1.029-1.029,3.381-3.087,4.263c-16.025-0.147-51.308,10.879-55.866,9.262
	c-3.234-2.205-0.588-8.38,8.233-11.467C213.863,82.4,243.119,79.901,247.529,84.164z M235.327,62.847
	c0,5.881-23.081,10.585-27.492,9.85c-12.496-1.911-9.262-16.318-7.498-23.816c0.294-1.176,1.911-5.145,2.793-7.791
	c-5.88-1.47-7.057-9.409-2.058-13.379c12.055-1.617,1.47-0.588,14.554-2.352c1.323-0.147,8.086-0.441,9.556,0
	c0.588,0.147,4.704,4.411,5.586,6.322c1.47,3.234-12.349,6.468-14.113,8.085c-3.234,2.94-6.469,11.908-6.91,17.936
	C226.066,56.526,230.623,53.585,235.327,62.847z"/>
<path fill="#2B2A28" d="M88.878,129.81c0,8.674-5.586,14.408-13.378,17.495c1.029,1.323,1.764,3.087,1.764,4.998
	c0,3.529-1.617,8.674-2.646,13.967c9.409-1.029,19.553-2.647,28.227-5.44c0.882,1.176,0.588,2.647-0.294,4.704
	c-9.556,9.556-43.957,14.849-54.101,12.79c-5.292-1.176-12.937-10.585,0.147-10.585c3.97,0,10.291-0.147,17.495-0.588
	c0.441-5.586,1.323-12.497,2.499-17.936c-1.324,0.147-2.793,0.294-4.117,0.441c-10.879,0.735-12.055-7.204-11.173-13.672
	c0.882-6.321,3.381-16.025,9.85-18.377c1.029,0.294,3.381,1.47,4.998,2.352c0.147-0.588,0.294-1.176,1.029-1.176
	C78,117.46,88.878,120.989,88.878,129.81z M79.176,123.929c-1.323-1.765-9.409-1.029-11.761,0.294
	c-1.911,4.704-5.88,10.732-2.499,17.642c4.704,1.176,10.585-0.147,13.231-3.822C81.234,133.779,82.704,128.634,79.176,123.929z
	 M134.453,184.646c0.882,1.617,1.764,12.055-3.088,13.819c-0.588,0.294-9.262,0.882-11.32,1.911
	c-4.263,2.206-11.026,2.793-18.082,2.352c-6.175-0.294-6.763-9.556-5.881-12.496c0.441-1.764,2.499-4.852,4.263-6.468
	c8.821-7.498,25.433-17.936,20.288-23.081c-1.323-1.324-10.585,0.882-12.643-0.883c-1.911-1.617-1.323-5.586-1.029-7.644
	c1.764-13.967-2.499-25.433-4.557-36.019c0-0.441,2.499-4.263,5.734-5.586c13.966,4.852,7.35,32.785,4.116,41.017
	c3.822,0,13.231,1.176,15.73,3.675c9.703,9.703-24.551,25.286-23.816,34.401C111.813,190.674,130.631,183.323,134.453,184.646z"/>
<path fill="#2B2A28" d="M205.612,235.853c0.294,2.647-1.617,5.293-3.97,4.999c-11.908-1.764-31.461,1.911-37.929,3.234
	c-5.439,1.029-11.026,1.029-14.848-1.617c-0.442-0.294-1.029-0.882-1.029-1.323c9.703-3.675,20.435-6.468,30.138-8.086
	c-0.588-7.939-1.176-25.286,5.734-25.286c1.911,1.323,1.911,3.97,1.911,6.468c-1.617,4.704-1.764,12.497-1.617,17.936
	C195.468,230.855,204.289,231.737,205.612,235.853z M190.911,194.101c1.323,1.47-1.029,3.822-1.911,4.411
	c-5.292,0.294-17.789,2.646-29.109,7.498c-1.176,0.588-4.263-2.058-4.557-3.381c-0.441-2.94,11.32-14.407,12.202-26.609
	c-3.381-0.588-7.204,2.205-8.527,2.205c-2.058,0-8.086-0.294-8.527-4.557c1.911-5.145,16.172-13.085,16.172-21.611
	c-3.675-4.999-16.172-2.647-17.789-9.556c-0.442-1.323-0.294-8.086,3.381-8.086c2.793,0,7.204,3.675,10.291,4.704
	c9.409,2.94,15.878,8.38,16.025,13.82c0,3.969-7.35,13.231-9.115,16.025c2.646-0.147,5.88,2.058,6.909,4.557
	c0.735,1.617-3.087,5.734-3.381,7.35c-0.882,3.676-4.41,10.585-6.321,13.085C174.298,191.455,185.03,191.602,190.911,194.101z
	 M169.152,231.443c-0.735,1.323-2.94,0.147-3.528-0.294c-2.94-3.234-6.763-13.819-3.381-21.317c2.058-1.911,6.468-3.381,6.468-1.323
	C167.536,212.919,167.388,223.798,169.152,231.443z"/>
<path fill="#2B2A28" d="M222.784,191.723c-0.735,0.735-4.557,3.529-8.674,2.647c-3.087-0.735-8.38-5.44-8.38-8.527
	c0-1.911,1.176-10.144,8.233-10.144C222.49,177.022,222.784,184.961,222.784,191.723z M226.9,121.451
	c-0.588,6.027-4.116,46.309-13.966,44.545c-3.822-6.616-0.588-44.545,1.47-51.455C221.02,113.218,227.636,115.276,226.9,121.451z"/>
</svg>
