<?xml version="1.0" encoding="utf-8"?>
<!-- Generator: Adobe Illustrator 17.0.2, SVG Export Plug-In . SVG Version: 6.00 Build 0)  -->
<!DOCTYPE svg PUBLIC "-//W3C//DTD SVG 1.1//EN" "http://www.w3.org/Graphics/SVG/1.1/DTD/svg11.dtd">
<svg version="1.1" id="Layer_1" xmlns="http://www.w3.org/2000/svg" xmlns:xlink="http://www.w3.org/1999/xlink" x="0px" y="0px"
	 width="260px" height="260px" viewBox="0 0 260 260" enable-background="new 0 0 260 260" xml:space="preserve">
<g>
	<path d="M52.023,59.397c-0.123,0.981-1.594,2.698-2.453,2.575c-7.481-0.491-12.632-6.499-22.811-3.556
		c-0.613,2.943-0.613,7.113-0.613,10.424c0.123,8.339,3.924,12.141-0.368,15.084c-0.981-0.368-9.198-3.066-10.424-8.83
		c-2.085-9.566,0.858-54.451,12.509-58.253c2.453,2.453,5.274,2.575,8.094,5.151c2.575,2.453,1.226,4.292,0.736,6.009
		c-0.981,2.821-7.726,12.999-7.726,18.763C36.203,48.972,46.75,53.142,52.023,59.397z M79.494,97.291
		c-0.123,2.576-0.368,6.377-3.311,7.849c-2.207,1.104-7.726,0.981-10.179-1.471c-1.594-1.717-2.085-9.075-1.471-10.915
		c0.368-0.245,1.226-0.858,1.349-1.349c1.839-7.113,4.292-16.188,0.368-23.914c-1.84-3.802-10.915-1.104-12.019-6.132
		c-0.491-1.839,2.33-5.641,4.661-11.405c2.575-6.254,4.538-18.764-0.981-25.141c1.349-2.698,3.556-3.434,6.499-1.962
		c4.661,3.924,4.783,15.084,3.924,20.48c-0.49,3.311-3.434,10.669-6.868,15.329c4.783,0,13.858,0.368,16.556,7.849
		c0.368,0.859,0.123,5.396,0.491,6.868C79.617,78.16,79.985,89.688,79.494,97.291z"/>
	<path d="M140.583,76.973c-16.556-0.246-36.669,5.641-44.149,5.641c-6.99-0.736-7.481-5.641-3.189-7.358
		c4.292-1.594,14.594-4.292,24.65-5.396c-0.368-6.377-0.858-18.518,4.906-18.518c1.594,1.104,1.594,3.311,1.594,5.396
		c-1.349,3.924-1.472,8.707-1.349,12.631c7.113-0.368,13.613,0.123,17.169,2.698C141.196,73.662,141.196,75.869,140.583,76.973z
		 M124.518,41.286c0,5.887-7.971,9.811-14.348,11.406c-0.859,3.924-0.246,11.159,0.49,15.943c-0.613,1.104-2.453,0.123-2.943-0.245
		c-2.453-2.698-5.519-8.953-2.943-15.084c-0.736,0-1.349-0.123-1.839-0.368c-5.274-2.085-4.415-7.481-2.453-11.405
		c1.227-2.33,2.576-6.255,4.047-10.302c0.123-0.491-0.246-1.226-0.246-1.962c1.962-2.576,5.641-2.821,9.688-1.962
		C122.31,28.899,124.518,36.38,124.518,41.286z M130.527,105.425c-0.123,0.981-0.613,5.886-1.104,8.584
		c-0.736,3.311-2.085,9.321-7.849,8.953c-1.226-0.736-0.491-4.538,0-6.377c0.981-3.434,0.858-9.811,0.245-12.754
		c-1.962-8.585-7.726-6.132-17.414-6.991c-1.104-0.368-3.679-6.254-1.226-7.849c5.764-3.679,21.584-2.084,25.141,5.396
		C130.404,98.803,131.018,103.34,130.527,105.425z M116.301,40.182c0.368-1.104-1.349-5.028-3.434-5.028
		c-2.575,0-4.292,5.641-3.679,8.217C112.254,43.371,114.461,41.654,116.301,40.182z"/>
	<path d="M210.114,134.121c0.246,1.839-4.047,4.783-4.905,5.396c-9.934,6.745-19.622,10.669-25.141,10.915
		c-5.641,0.368-6.009-8.707-0.859-11.406c4.415-2.207,7.726-10.179,0-11.651c-0.245,0-2.084-0.858-2.453-1.717
		c-0.368-0.858-1.839-4.66,0.368-6.622c1.962-1.84,8.216-6.5,7.971-8.953c-1.717-1.227-9.934-0.246-11.038-1.594
		c-7.849-6.991,11.283-16.066,14.594-21.952c-2.576-1.472-16.188,1.349-22.198,1.839c-7.358,0.736-13.735-4.538-11.159-8.462
		c2.575-3.924,13.858-4.661,18.641-4.661c8.094,0,16.801,1.962,20.603,5.887c0,0.368-0.368,1.104-0.123,1.472
		c3.066,4.66-13.735,12.754-16.065,16.924c19.622,2.821,17.659,9.934,13.122,16.801c-0.981,1.349-4.906,3.434-6.132,5.886
		c-0.491,0.859,5.274,3.802,6.377,5.641c1.471,2.33,1.471,5.396,0.368,8.462c5.151-0.613,12.386-2.575,17.292-6.377
		C209.869,130.687,210.359,132.772,210.114,134.121z M192.209,50.973c0,10.424-9.566,15.82-20.358,16.679
		c-9.075,0.613-10.056-6.009-9.321-11.405c0.736-5.274,2.944-13.368,8.217-15.33c0.859,0.246,2.943,1.226,4.17,1.962
		c0.123-0.613,0.368-0.981,0.858-0.981C183.134,40.794,192.209,43.738,192.209,50.973z M184.115,46.068
		c-0.981-1.349-7.849-0.736-9.811,0.368c-1.471,3.802-4.905,8.953-2.084,14.716c4.047,0.981,8.707-0.123,11.037-3.311
		C185.709,54.407,187.181,50.115,184.115,46.068z"/>
	<path d="M100.74,196.138c-16.556,0-36.546,5.641-45.376,5.641c-12.754,0-6.254-10.547-1.962-12.264
		c2.575-0.981,7.236-1.839,12.877-2.33c0.245-2.576,0.613-5.396,0.981-8.094c-1.103,0.123-1.962,0.123-2.575,0
		c-10.424-1.594-7.726-13.613-6.254-19.868c0.245-0.981,1.594-4.292,2.33-6.499c-4.906-1.227-5.887-7.849-1.717-11.16
		c10.056-1.349,1.226-0.491,12.141-1.962c1.103-0.123,6.745-0.368,7.971,0c0.491,0.123,3.924,3.679,4.66,5.274
		c1.226,2.698-10.301,5.396-11.773,6.745c-2.698,2.453-5.396,9.933-5.764,14.961c13.613-0.981,17.414-3.434,21.339,4.292
		c0,2.821-6.254,5.273-12.264,6.745c-0.123,2.453-0.981,5.641-1.839,9.198c10.546-0.368,21.829,0.736,26.858,4.415
		C101.354,192.826,101.354,195.034,100.74,196.138z M93.505,224.957c1.104,0.736,0.859,2.576-1.717,6.745
		c-5.028,0-9.075,1.962-14.839,4.292c-0.368,0.123-0.981,0.981-1.472,1.104c-0.858,0.123-1.839,0.368-2.821,0.491
		c-1.717,0.245-4.415-0.368-6.254-2.698c-4.538-5.641-4.169-9.32-1.226-15.452c-4.047-0.859-7.604-7.358-4.415-9.443
		c2.943-2.085,12.999-3.924,18.641-4.415c3.066-0.246,4.17,0.368,5.764,1.717c0.368,0.368,1.717,1.349,2.453,2.085
		c2.085,3.556-3.802,3.924-6.132,4.538s-5.396,0.981-7.113,2.943c-0.245,0.245-0.491,2.943-0.981,4.292
		c-0.613,1.471-1.104,6.009-1.226,7.358C77.072,228.146,90.439,222.873,93.505,224.957z"/>
	<path d="M157.675,197.784c1.226,1.349,0.736,2.943-0.613,3.801c-2.453,1.594-7.358,1.962-8.217,3.802
		c-2.576,5.887-0.859,29.678-0.613,37.527c-0.491,0.613-3.556,0.368-4.292-0.368c-9.198-9.566-2.821-26.244-1.594-36.3
		c-12.386,1.717-17.537,6.499-25.018,6.499c-4.415,0-8.585-6.622-7.481-8.953c4.292-2.575,11.651-4.169,16.556-5.151
		C139.402,195.822,153.382,195.086,157.675,197.784z M150.807,172.889c0.613,7.113-16.924,18.273-24.528,16.801
		c-1.594-0.368-9.689-1.717-8.83-9.075c0.981-8.953,8.339-19.868,16.924-20.603C140.015,160.503,149.948,161.238,150.807,172.889z
		 M143.081,173.87c1.226-2.576-3.189-8.707-10.669-4.292c-11.406,6.868-7.604,13.245-1.84,12.019
		C137.317,181.351,141.118,177.794,143.081,173.87z"/>
	<path d="M219.2,212.728c1.472,4.292-0.613,9.566-6.132,10.424c-4.66,0.613-10.424-2.33-14.716-4.047
		c-0.981,2.453-6.745,12.018-8.339,14.226c-2.453,3.557-6.745,3.802-9.566,2.576c0.123-11.773,10.424-28.206,13.735-38.508
		c1.962-6.132-9.443-4.66-14.103-8.094c-3.679-2.821-2.575-8.339-1.471-11.16c15.943,4.169,22.688,6.377,26.244,13.368
		c2.453,4.783-1.349,13.613-4.169,20.971C211.106,215.181,216.502,214.445,219.2,212.728z M251.453,195.927
		c0.368,2.575-0.613,6.868-2.943,8.216c-3.924,2.33-10.056,3.311-14.594,4.661c0.368,2.943,4.292,14.716,1.594,17.659
		c-6.5,1.472-7.358-12.264-8.707-19.867c-1.594-9.689-1.839-20.235-0.613-30.904c0.123-1.104,2.331-3.189,3.802-3.557
		c2.453,7.481,1.472,20.971,2.33,24.65C236.983,197.889,245.567,195.927,251.453,195.927z"/>
</g>
</svg>
